<svg width="107" height="105" viewBox="0 0 107 105" fill="none" xmlns="http://www.w3.org/2000/svg">
<path d="M81.6202 33.1482C77.8468 33.1482 74.7772 36.2179 74.7772 39.9912C74.7772 43.7645 77.8468 46.8341 81.6202 46.8341C85.3935 46.8341 88.4631 43.7645 88.4631 39.9912C88.4631 36.2179 85.3935 33.1482 81.6202 33.1482ZM81.6202 44.1695C79.3163 44.1695 77.4418 42.2951 77.4418 39.9912C77.4418 37.6873 79.3163 35.8128 81.6202 35.8128C83.9241 35.8128 85.7985 37.6873 85.7985 39.9912C85.7985 42.2951 83.9243 44.1695 81.6202 44.1695Z" fill="#7C9FA5"/>
<path d="M81.6205 41.8349C82.6387 41.8349 83.4641 41.0094 83.4641 39.9912C83.4641 38.973 82.6387 38.1475 81.6205 38.1475C80.6023 38.1475 79.7768 38.973 79.7768 39.9912C79.7768 41.0094 80.6023 41.8349 81.6205 41.8349Z" fill="#7C9FA5"/>
<path d="M16.1796 77.3831C12.4062 77.3831 9.33662 80.4527 9.33662 84.2261C9.33662 87.9994 12.4062 91.069 16.1796 91.069C19.9529 91.069 23.0225 87.9994 23.0225 84.2261C23.0225 80.4527 19.9529 77.3831 16.1796 77.3831ZM16.1796 88.4044C13.8757 88.4044 12.0012 86.53 12.0012 84.2261C12.0012 81.9222 13.8757 80.0477 16.1796 80.0477C18.4835 80.0477 20.3579 81.9222 20.3579 84.2261C20.3579 86.53 18.4837 88.4044 16.1796 88.4044Z" fill="#7C9FA5"/>
<path d="M16.1799 86.0697C17.1981 86.0697 18.0235 85.2443 18.0235 84.2261C18.0235 83.2078 17.1981 82.3824 16.1799 82.3824C15.1616 82.3824 14.3362 83.2078 14.3362 84.2261C14.3362 85.2443 15.1616 86.0697 16.1799 86.0697Z" fill="#7C9FA5"/>
<path d="M35.1473 6.63318C31.3739 6.63318 28.3043 9.70281 28.3043 13.4761C28.3043 17.2495 31.3739 20.3191 35.1473 20.3191C38.9206 20.3191 41.9902 17.2495 41.9902 13.4761C41.9902 9.70281 38.9206 6.63318 35.1473 6.63318ZM35.1473 17.6545C32.8434 17.6545 30.9689 15.7801 30.9689 13.4761C30.9689 11.1722 32.8434 9.29779 35.1473 9.29779C37.4512 9.29779 39.3256 11.1722 39.3256 13.4761C39.3256 15.7801 37.4512 17.6545 35.1473 17.6545Z" fill="#7C9FA5"/>
<path d="M35.1482 15.3198C36.1664 15.3198 36.9918 14.4943 36.9918 13.4761C36.9918 12.4579 36.1664 11.6324 35.1482 11.6324C34.1299 11.6324 33.3045 12.4579 33.3045 13.4761C33.3045 14.4943 34.1299 15.3198 35.1482 15.3198Z" fill="#7C9FA5"/>
<path d="M65.4286 76.4553H51.6322C50.8963 76.4553 50.2999 77.0517 50.2999 77.7876C50.2999 78.5235 50.8963 79.1199 51.6322 79.1199H65.4286C66.1645 79.1199 66.7609 78.5235 66.7609 77.7876C66.7609 77.0517 66.1643 76.4553 65.4286 76.4553Z" fill="#7C9FA5"/>
<path d="M65.4286 83.066H51.6322C50.8963 83.066 50.2999 83.6624 50.2999 84.3983C50.2999 85.1342 50.8963 85.7306 51.6322 85.7306H65.4286C66.1645 85.7306 66.7609 85.1342 66.7609 84.3983C66.7609 83.6624 66.1643 83.066 65.4286 83.066Z" fill="#7C9FA5"/>
<path d="M65.4286 89.6769H51.6322C50.8963 89.6769 50.2999 90.2733 50.2999 91.0092C50.2999 91.7452 50.8963 92.3415 51.6322 92.3415H65.4286C66.1645 92.3415 66.7609 91.7452 66.7609 91.0092C66.7609 90.2733 66.1643 89.6769 65.4286 89.6769Z" fill="#7C9FA5"/>
<path d="M103.427 29.0302H91.7664V20.3772C91.7664 20.0238 91.6259 19.6849 91.3762 19.4352L72.3284 0.390244C72.0786 0.140498 71.7397 0 71.3863 0H23.4641C22.7281 0 22.1318 0.596388 22.1318 1.3323V64.0959H1.3323C0.596388 64.0959 0 64.6923 0 65.4282V103.024C0 103.76 0.596388 104.356 1.3323 104.356H75.7754C76.5113 104.356 77.1077 103.76 77.1077 103.024V94.066H90.4341C91.1701 94.066 91.7664 93.4696 91.7664 92.7337V50.9524H103.427C105.397 50.9524 107 49.3498 107 47.3799V32.6029C107 30.6328 105.398 29.0302 103.427 29.0302ZM72.7188 4.54849L87.2175 19.0449H72.7188V4.54849ZM74.4431 101.692H2.66461V66.7605H74.4431V101.692ZM89.1018 91.4014H77.1077V65.4282C77.1077 64.6923 76.5113 64.0959 75.7754 64.0959H24.7964V2.66461H70.0542V20.3772C70.0542 21.1131 70.6506 21.7095 71.3865 21.7095H89.1018V29.0302H74.2791C72.3092 29.0302 70.7066 30.6328 70.7066 32.6027V47.3796C70.7066 49.3495 72.3092 50.9521 74.2791 50.9521H89.1018V91.4014ZM104.335 47.3799C104.335 47.8806 103.928 48.2878 103.427 48.2878H74.2791C73.7784 48.2878 73.3712 47.8806 73.3712 47.3799V32.6029C73.3712 32.1022 73.7784 31.695 74.2791 31.695H103.427C103.928 31.695 104.335 32.1022 104.335 32.6029V47.3799Z" fill="#7C9FA5"/>
<path d="M99.9188 36.3595H91.2959C90.56 36.3595 89.9636 36.9559 89.9636 37.6918C89.9636 38.4277 90.56 39.0241 91.2959 39.0241H99.9188C100.655 39.0241 101.251 38.4277 101.251 37.6918C101.251 36.9559 100.655 36.3595 99.9188 36.3595Z" fill="#7C9FA5"/>
<path d="M99.9188 40.9582H91.2959C90.56 40.9582 89.9636 41.5545 89.9636 42.2905C89.9636 43.0264 90.56 43.6228 91.2959 43.6228H99.9188C100.655 43.6228 101.251 43.0264 101.251 42.2905C101.251 41.5545 100.655 40.9582 99.9188 40.9582Z" fill="#7C9FA5"/>
<path d="M13.3391 61.7688C13.5009 62.3429 14.0249 62.7394 14.6213 62.7394C15.2177 62.7394 15.7416 62.3429 15.9034 61.7688L18.3258 53.1776C18.359 53.0599 18.3759 52.9383 18.3759 52.8159V7.63074C18.3759 6.89482 17.7796 6.29843 17.0436 6.29843H12.1989C11.463 6.29843 10.8666 6.89482 10.8666 7.63074V52.8162C10.8666 52.9385 10.8833 53.0601 10.9167 53.1778L13.3391 61.7688ZM13.959 54.1485H15.2838L14.6213 56.4979L13.959 54.1485ZM15.7113 8.96304V51.4839H13.5312V8.96304H15.7113Z" fill="#7C9FA5"/>
<path d="M1.3323 62.7397H6.17705C6.91296 62.7397 7.50935 62.1433 7.50935 61.4074V16.2219C7.50935 16.0996 7.49264 15.978 7.45921 15.8603L5.03684 7.26908C4.87502 6.69497 4.35106 6.29843 3.75468 6.29843C3.15829 6.29843 2.63433 6.69497 2.47251 7.26908L0.0501431 15.8603C0.0167144 15.978 0 16.0996 0 16.2219V61.4074C0 62.143 0.596388 62.7397 1.3323 62.7397ZM2.66461 60.0751V17.5542H4.84474V60.0751H2.66461ZM4.41719 14.8896H3.09216L3.75468 12.5402L4.41719 14.8896Z" fill="#7C9FA5"/>
</svg>
