<svg width="113" height="109" viewBox="0 0 113 109" fill="none" xmlns="http://www.w3.org/2000/svg">
<path d="M110.793 0H2.20702C0.988084 0 0 0.988305 0 2.20702V24.9082C0 26.127 0.988084 27.1153 2.20702 27.1153H110.793C112.012 27.1153 113 26.127 113 24.9082V2.20702C113 0.988305 112.012 0 110.793 0ZM108.586 22.7012H4.41404V4.41404H108.586V22.7012Z" fill="#7C9FA5"/>
<path d="M103.6 17.6882L101.797 15.8857C102.289 14.9128 102.551 13.8318 102.551 12.7102C102.551 10.827 101.818 9.05606 100.486 7.72435C97.7371 4.9755 93.2642 4.97528 90.5149 7.72435C89.1832 9.05606 88.4498 10.827 88.4498 12.7102C88.4498 14.5935 89.1834 16.3644 90.5149 17.6959C91.8468 19.0276 93.6175 19.761 95.5008 19.761C96.6226 19.761 97.7034 19.4988 98.6762 19.0071L100.479 20.8096C100.91 21.2404 101.475 21.456 102.039 21.456C102.604 21.456 103.169 21.2404 103.6 20.8096C104.462 19.9477 104.462 18.5502 103.6 17.6882ZM97.3653 14.5745C96.8674 15.0726 96.2053 15.347 95.5008 15.347C94.7963 15.347 94.1344 15.0726 93.6363 14.5745C93.1384 14.0764 92.8638 13.4145 92.8638 12.7102C92.8638 12.006 93.1384 11.3436 93.6363 10.8457C94.1503 10.3317 94.8256 10.0748 95.5008 10.0748C96.1759 10.0748 96.8512 10.3317 97.3653 10.8457C97.8632 11.3439 98.1377 12.006 98.1377 12.7102C98.1377 13.4145 97.8634 14.0766 97.3653 14.5745Z" fill="#7C9FA5"/>
<path d="M79.0869 17.1225C79.0582 16.981 79.0163 16.842 78.9611 16.7098C78.9059 16.5771 78.8375 16.4471 78.7581 16.328C78.6786 16.2088 78.5859 16.094 78.4844 15.9925C78.3829 15.891 78.2703 15.7983 78.1489 15.7188C78.0297 15.6394 77.9017 15.571 77.7671 15.5158C77.6347 15.4606 77.4956 15.4187 77.3544 15.39C77.0697 15.3326 76.7762 15.3326 76.4915 15.39C76.3502 15.4187 76.2112 15.4606 76.0787 15.5158C75.9463 15.571 75.8183 15.6394 75.6991 15.7188C75.5777 15.7983 75.4652 15.891 75.3615 15.9925C75.2599 16.094 75.1694 16.2086 75.0878 16.328C75.0083 16.4471 74.9399 16.5774 74.8847 16.7098C74.8296 16.8422 74.7876 16.981 74.7589 17.1225C74.7302 17.2657 74.717 17.4094 74.717 17.5551C74.717 17.6983 74.7302 17.842 74.7589 17.9854C74.7876 18.1267 74.8296 18.2657 74.8847 18.3979C74.9399 18.5306 75.0083 18.6586 75.0878 18.7797C75.1694 18.8989 75.2599 19.0137 75.3615 19.1152C75.4652 19.2167 75.5777 19.3096 75.6991 19.3889C75.8183 19.4683 75.9463 19.5367 76.0787 19.5919C76.2134 19.6471 76.3524 19.689 76.4915 19.7177C76.6349 19.7464 76.7806 19.7597 76.924 19.7597C77.0675 19.7597 77.2131 19.7462 77.3544 19.7177C77.4956 19.6893 77.6347 19.6471 77.7671 19.5919C77.8995 19.5367 78.0297 19.4683 78.1489 19.3889C78.2703 19.3096 78.3829 19.2167 78.4844 19.1152C78.8949 18.7027 79.131 18.1355 79.131 17.5551C79.131 17.4094 79.1156 17.2657 79.0869 17.1225Z" fill="#7C9FA5"/>
<path d="M68.556 15.3469H22.6868C21.4679 15.3469 20.4798 16.3352 20.4798 17.554C20.4798 18.7727 21.4679 19.761 22.6868 19.761H68.556C69.775 19.761 70.7631 18.7727 70.7631 17.554C70.7631 16.3352 69.775 15.3469 68.556 15.3469Z" fill="#7C9FA5"/>
<path d="M69.4819 30.2616H2.46791C1.24897 30.2616 0.260887 31.2499 0.260887 32.4686V75.9908C0.260887 77.2098 1.24897 78.1979 2.46791 78.1979H69.4819C70.7009 78.1979 71.689 77.2096 71.689 75.9908V32.4686C71.689 31.2499 70.7009 30.2616 69.4819 30.2616ZM26.8831 73.7836H8.14967L20.7661 59.1762L29.9032 69.7567L26.8831 73.7836ZM32.4006 73.7836L36.5159 68.2967H47.2175C48.4364 68.2967 49.4245 67.3084 49.4245 66.0897C49.4245 64.871 48.4364 63.8827 47.2175 63.8827H39.8266L41.3751 61.8182H55.2327L64.2076 73.7836H32.4006ZM44.6854 57.4042L48.3038 52.5799L51.9222 57.4042H44.6854ZM67.2749 70.5168L50.0694 47.577C49.6525 47.0213 48.9983 46.6942 48.3038 46.6942C47.6092 46.6942 46.9551 47.0213 46.5382 47.577L32.6141 66.1422L22.4366 54.3567C22.0175 53.8714 21.4077 53.5922 20.7663 53.5922C20.125 53.5922 19.5154 53.8714 19.0961 54.3567L4.67493 71.0535V34.6756H67.2749V70.5168Z" fill="#7C9FA5"/>
<path d="M30.379 37.2097C26.0766 37.2097 22.5765 40.7098 22.5765 45.0122C22.5765 49.3145 26.0768 52.8146 30.379 52.8146C34.6813 52.8146 38.1815 49.3145 38.1815 45.0122C38.1815 40.7098 34.6813 37.2097 30.379 37.2097ZM30.379 48.4008C28.5105 48.4008 26.9905 46.8808 26.9905 45.0124C26.9905 43.1439 28.5107 41.6239 30.379 41.6239C32.2472 41.6239 33.7674 43.1439 33.7674 45.0124C33.7674 46.8808 32.2474 48.4008 30.379 48.4008Z" fill="#7C9FA5"/>
<path d="M110.793 30.2616H76.873C75.6541 30.2616 74.666 31.2499 74.666 32.4686V75.9908C74.666 77.2096 75.6541 78.1979 76.873 78.1979H110.793C112.012 78.1979 113 77.2096 113 75.9908V32.4686C113 31.2499 112.012 30.2616 110.793 30.2616ZM108.586 73.7838H79.0801V34.6756H108.586V73.7838Z" fill="#7C9FA5"/>
<path d="M103.447 38.3108H84.2186C82.9997 38.3108 82.0116 39.2991 82.0116 40.5178C82.0116 41.7365 82.9997 42.7248 84.2186 42.7248H103.447C104.666 42.7248 105.654 41.7365 105.654 40.5178C105.654 39.2991 104.666 38.3108 103.447 38.3108Z" fill="#7C9FA5"/>
<path d="M103.447 47.1685H84.2186C82.9997 47.1685 82.0116 48.1568 82.0116 49.3755C82.0116 50.5942 82.9997 51.5825 84.2186 51.5825H103.447C104.666 51.5825 105.654 50.5942 105.654 49.3755C105.654 48.1568 104.666 47.1685 103.447 47.1685Z" fill="#7C9FA5"/>
<path d="M103.447 56.0261H84.2186C82.9997 56.0261 82.0116 57.0144 82.0116 58.2331C82.0116 59.4519 82.9997 60.4402 84.2186 60.4402H103.447C104.666 60.4402 105.654 59.4519 105.654 58.2331C105.654 57.0144 104.666 56.0261 103.447 56.0261Z" fill="#7C9FA5"/>
<path d="M86.3831 66.6591C86.3544 66.5177 86.3125 66.3786 86.2573 66.2464C86.2021 66.1138 86.1337 65.9858 86.0543 65.8646C85.9726 65.7454 85.8821 65.6306 85.7784 65.5291C85.2664 65.0171 84.5049 64.7807 83.7877 64.9266C83.6464 64.9553 83.5074 64.9972 83.3749 65.0524C83.2425 65.1076 83.1145 65.176 82.9931 65.2555C82.8739 65.3349 82.7592 65.4276 82.6577 65.5291C82.5561 65.6306 82.4634 65.7452 82.384 65.8646C82.3045 65.986 82.2361 66.114 82.1809 66.2464C82.1258 66.3788 82.0838 66.5177 82.0551 66.6591C82.0264 66.8024 82.011 66.946 82.011 67.0893C82.011 67.2349 82.0264 67.3786 82.0551 67.5218C82.0838 67.6633 82.1258 67.8024 82.1809 67.9348C82.2361 68.0674 82.3045 68.1954 82.384 68.3166C82.4634 68.4358 82.5561 68.5505 82.6577 68.6521C82.7592 68.7536 82.8739 68.8463 82.9931 68.9257C83.1145 69.0052 83.2425 69.0736 83.3749 69.1288C83.5074 69.184 83.6464 69.2259 83.7877 69.2546C83.9311 69.2833 84.0746 69.2987 84.2202 69.2987C84.8007 69.2987 85.3679 69.0626 85.7784 68.6518C85.8799 68.5503 85.9726 68.4358 86.0543 68.3164C86.1337 68.195 86.2021 68.067 86.2573 67.9346C86.3125 67.8021 86.3544 67.6633 86.3831 67.5218C86.4118 67.3786 86.425 67.2349 86.425 67.0893C86.425 66.946 86.4118 66.8024 86.3831 66.6591Z" fill="#7C9FA5"/>
<path d="M103.447 64.8836H92.5856C91.3666 64.8836 90.3785 65.8719 90.3785 67.0906C90.3785 68.3093 91.3666 69.2976 92.5856 69.2976H103.447C104.666 69.2976 105.654 68.3093 105.654 67.0906C105.654 65.8719 104.666 64.8836 103.447 64.8836Z" fill="#7C9FA5"/>
<path d="M36.3876 81.3292H2.46791C1.24897 81.3292 0.260887 82.3175 0.260887 83.5362V106.269C0.260887 107.488 1.24897 108.476 2.46791 108.476H36.3876C37.6066 108.476 38.5947 107.488 38.5947 106.269V83.5362C38.5947 82.3175 37.6066 81.3292 36.3876 81.3292ZM34.1806 104.062H4.67493V85.7432H34.1806V104.062Z" fill="#7C9FA5"/>
<path d="M110.793 81.3292H44.0806C42.8617 81.3292 41.8736 82.3175 41.8736 83.5362V106.269C41.8736 107.488 42.8617 108.476 44.0806 108.476H110.793C112.012 108.476 113 107.488 113 106.269V83.5362C113 82.3175 112.012 81.3292 110.793 81.3292ZM108.586 104.062H46.2877V85.7432H108.586V104.062Z" fill="#7C9FA5"/>
<path d="M56.3413 94.4722C56.3126 94.3312 56.2707 94.1919 56.2155 94.0595C56.1603 93.9249 56.0919 93.7971 56.0124 93.6779C55.933 93.5563 55.8403 93.4438 55.7388 93.3422C55.6373 93.2407 55.5247 93.148 55.4033 93.0686C55.2841 92.9893 55.1561 92.9207 55.0215 92.8655C54.8891 92.8103 54.75 92.7662 54.6088 92.7375C54.3241 92.6823 54.0305 92.6823 53.7458 92.7375C53.6068 92.7662 53.4678 92.8103 53.3331 92.8655C53.2007 92.9207 53.0727 92.9893 52.9535 93.0686C52.8321 93.148 52.7196 93.2407 52.618 93.3422C52.5165 93.4438 52.4238 93.5563 52.3422 93.6779C52.2627 93.7971 52.1943 93.9249 52.1391 94.0595C52.0839 94.1922 52.042 94.331 52.0133 94.4722C51.9846 94.6135 51.9714 94.7591 51.9714 94.9026C51.9714 95.0458 51.9846 95.1917 52.0133 95.333C52.042 95.474 52.0839 95.613 52.1391 95.7477C52.1943 95.8801 52.2627 96.0081 52.3422 96.1273C52.4238 96.2487 52.5165 96.3612 52.618 96.4627C53.0286 96.8732 53.598 97.1096 54.1784 97.1096C54.3219 97.1096 54.4675 97.0962 54.6088 97.0677C54.75 97.039 54.8891 96.9949 55.0215 96.9397C55.1561 96.8845 55.2841 96.8183 55.4033 96.7366C55.5247 96.6574 55.6373 96.5647 55.7388 96.463C55.8403 96.3614 55.933 96.2489 56.0124 96.1275C56.0919 96.0083 56.1603 95.8803 56.2155 95.7479C56.2707 95.6133 56.3126 95.4742 56.3413 95.333C56.37 95.1915 56.3854 95.0458 56.3854 94.9026C56.3854 94.7591 56.37 94.6133 56.3413 94.4722Z" fill="#7C9FA5"/>
</svg>
