<svg width="120" height="102" viewBox="0 0 120 102" fill="none" xmlns="http://www.w3.org/2000/svg">
<path d="M111.257 0.291504H8.74289C3.92203 0.291504 0 4.21353 0 9.03439V92.9653C0 97.7861 3.92203 101.708 8.74289 101.708H111.257C116.078 101.708 120 97.7864 120 92.9653V9.03439C120 4.21353 116.078 0.291504 111.257 0.291504V0.291504ZM116.484 19.8281H27.6087C26.6377 19.8281 25.8509 20.6149 25.8509 21.5859C25.8509 22.5569 26.6377 23.3437 27.6087 23.3437H116.484V92.9655C116.484 95.8481 114.139 98.193 111.257 98.193H8.74289C5.86055 98.1928 3.51562 95.8481 3.51562 92.9655V23.3437H19.3915C20.3625 23.3437 21.1493 22.5569 21.1493 21.5859C21.1493 20.6149 20.3625 19.8281 19.3915 19.8281H3.51562V9.03439C3.51562 6.15182 5.86055 3.80689 8.74289 3.80689H111.257C114.14 3.80689 116.485 6.15182 116.485 9.03439V19.8281H116.484Z" fill="#7C9FA5"/>
<path d="M15.2495 13.57C16.2173 13.57 17.0019 12.7854 17.0019 11.8176C17.0019 10.8498 16.2173 10.0652 15.2495 10.0652C14.2817 10.0652 13.4971 10.8498 13.4971 11.8176C13.4971 12.7854 14.2817 13.57 15.2495 13.57Z" fill="#7C9FA5"/>
<path d="M23.509 13.57C24.4769 13.57 25.2614 12.7854 25.2614 11.8176C25.2614 10.8498 24.4769 10.0652 23.509 10.0652C22.5412 10.0652 21.7566 10.8498 21.7566 11.8176C21.7566 12.7854 22.5412 13.57 23.509 13.57Z" fill="#7C9FA5"/>
<path d="M31.7685 13.57C32.7364 13.57 33.521 12.7854 33.521 11.8176C33.521 10.8498 32.7364 10.0652 31.7685 10.0652C30.8007 10.0652 30.0161 10.8498 30.0161 11.8176C30.0161 12.7854 30.8007 13.57 31.7685 13.57Z" fill="#7C9FA5"/>
<path d="M106.503 10.0598H96.2109C95.2399 10.0598 94.4531 10.8466 94.4531 11.8176C94.4531 12.7886 95.2399 13.5754 96.2109 13.5754H106.503C107.474 13.5754 108.261 12.7886 108.261 11.8176C108.261 10.8466 107.474 10.0598 106.503 10.0598Z" fill="#7C9FA5"/>
<path d="M46.0393 66.6774C46.0393 67.636 46.8163 68.4132 47.7751 68.4132C48.7337 68.4132 49.5109 67.636 49.5109 66.6774C49.5109 65.7188 48.7337 64.9417 47.7751 64.9417C46.8163 64.9417 46.0393 65.7188 46.0393 66.6774Z" fill="#7C9FA5"/>
<path d="M70.5703 66.6774C70.5703 67.636 71.3475 68.4132 72.3061 68.4132C73.2647 68.4132 74.0419 67.636 74.0419 66.6774C74.0419 65.7188 73.2647 64.9417 72.3061 64.9417C71.3475 64.9417 70.5703 65.7188 70.5703 66.6774Z" fill="#7C9FA5"/>
<path d="M41.4164 55.3018L39.3143 61.2992L37.2453 55.2338C37.2434 55.2287 37.2411 55.224 37.2392 55.2188C36.6872 53.6485 34.4904 53.6687 33.931 55.1989C33.9293 55.2031 33.9272 55.2071 33.9258 55.2115L31.7358 61.3566L29.6628 55.325C29.3473 54.4069 28.3486 53.9183 27.4292 54.234C26.5111 54.5494 26.0225 55.5495 26.3382 56.4676L30.0434 67.2491C30.2862 67.9555 30.9488 68.4312 31.696 68.4355H31.7058C32.4488 68.4355 33.1121 67.9681 33.3614 67.2678L35.5454 61.1398L37.628 67.2453C37.8699 67.9543 38.535 68.4322 39.2843 68.4355H39.2916C40.0381 68.4355 40.7032 67.9639 40.9505 67.2589L44.7343 56.4645C45.0554 55.5486 44.573 54.5455 43.6566 54.2241C42.7411 53.9037 41.7378 54.3854 41.4164 55.3018V55.3018Z" fill="#7C9FA5"/>
<path d="M65.8784 55.3016L63.7763 61.299L61.7072 55.2336C61.7053 55.2284 61.703 55.2238 61.7011 55.2186C61.1581 53.6717 58.9617 53.6431 58.3929 55.1987C58.3913 55.2029 58.3892 55.2069 58.3877 55.2113L56.1977 61.3564L54.1249 55.3248C53.8095 54.4065 52.8096 53.9178 51.8913 54.2338C50.9733 54.5492 50.4846 55.5493 50.8003 56.4673L54.5053 67.2488C54.7479 67.9552 55.4107 68.431 56.1577 68.4352H56.1677C56.9107 68.4352 57.574 67.9679 57.8234 67.2676L60.0073 61.1396L62.0902 67.2453C62.3323 67.9543 62.9972 68.4322 63.7465 68.4354H63.7538C64.5002 68.4354 65.1654 67.9639 65.4127 67.2589L69.1962 56.4645C69.5173 55.5486 69.0349 54.5455 68.1185 54.2241C67.2033 53.9035 66.1997 54.3854 65.8784 55.3016V55.3016Z" fill="#7C9FA5"/>
<path d="M90.3403 55.3016L88.2382 61.299L86.1691 55.2336C85.6239 53.6506 83.4164 53.6631 82.8548 55.1985C82.8532 55.2027 82.8511 55.2067 82.8496 55.2111L80.6594 61.3562L78.5866 55.3245C78.2711 54.4063 77.2713 53.9176 76.353 54.2335C75.435 54.549 74.9463 55.5491 75.262 56.4671L78.967 67.2486C79.2096 67.955 79.8724 68.4308 80.6193 68.435H80.6294C81.3724 68.435 82.0357 67.9679 82.285 67.2674L84.4689 61.1394L86.5518 67.2451C86.7937 67.9541 87.4589 68.432 88.2082 68.4352H88.2154C88.9619 68.4352 89.6271 67.9637 89.8743 67.2587L93.6581 56.4643C93.9792 55.5484 93.4968 54.5453 92.5804 54.2239C91.665 53.9035 90.6614 54.3852 90.3403 55.3016V55.3016Z" fill="#7C9FA5"/>
<path d="M13.8252 50.3311V72.1477C13.8252 75.7889 16.7877 78.7514 20.4292 78.7514H32.7529C38.7285 88.0282 48.955 93.6274 60.0001 93.6274C71.0347 93.6274 81.2661 88.0369 87.2474 78.7514H99.9643C103.606 78.7514 106.568 75.7889 106.568 72.1477V65.1382C106.568 64.1672 105.782 63.3804 104.811 63.3804C103.84 63.3804 103.053 64.1672 103.053 65.1382V72.1477C103.053 73.8506 101.667 75.2358 99.9643 75.2358H20.4292C18.7262 75.2358 17.3408 73.8506 17.3408 72.1477V50.3311C17.3408 48.6281 18.7262 47.2427 20.4292 47.2427H99.9646C101.668 47.2427 103.053 48.6281 103.053 50.3311V56.8594C103.053 57.8304 103.84 58.6172 104.811 58.6172C105.782 58.6172 106.569 57.8304 106.569 56.8594V50.3311C106.569 46.6896 103.606 43.7271 99.9646 43.7271H87.2474C81.2718 34.4508 71.0453 28.8516 60.0001 28.8516C48.965 28.8516 38.7339 34.4426 32.7529 43.7273H20.4292C16.7877 43.7273 13.8252 46.6896 13.8252 50.3311V50.3311ZM75.8772 78.7514H82.9499C79.832 82.8291 75.6313 86.1094 70.6215 88.0884C72.929 85.3898 74.6483 82.0823 75.8772 78.7514ZM61.7579 78.7514H72.1047C70.1753 83.4403 66.6988 88.8087 61.7579 89.9147V78.7514ZM58.2423 78.7514V89.9147C53.2984 88.808 49.8229 83.4347 47.8956 78.7514H58.2423ZM44.1231 78.7514C45.3519 82.0819 47.0711 85.3894 49.3787 88.0884C44.3668 86.1087 40.1668 82.8274 37.0504 78.7514H44.1231ZM82.9482 43.7273H75.8772C74.6453 40.3884 72.9245 37.084 70.6218 34.3905C75.6458 36.3752 79.84 39.6614 82.9482 43.7273V43.7273ZM61.7579 32.5643C66.7018 33.671 70.1774 39.0443 72.1047 43.7273H61.7579V32.5643ZM58.2423 32.5643V43.7273H47.8956C49.8252 39.0384 53.3015 33.6703 58.2423 32.5643ZM49.3785 34.3905C47.075 37.0849 45.3545 40.3898 44.1231 43.7273H37.052C40.1598 39.6619 44.3535 36.3757 49.3785 34.3905V34.3905Z" fill="#7C9FA5"/>
</svg>
