<svg width="60" height="60" viewBox="0 0 60 60" fill="none" xmlns="http://www.w3.org/2000/svg">
<g clip-path="url(#clip0)">
<path d="M30 59.999C46.5685 59.999 60 46.5676 60 29.999C60 13.4305 46.5685 -0.000976562 30 -0.000976562C13.4315 -0.000976562 0 13.4305 0 29.999C0 46.5676 13.4315 59.999 30 59.999Z" fill="#F26F8C"/>
<path d="M47.9249 32.4135V44.7818H40.7541V33.2424C40.7541 30.3449 39.7187 28.3663 37.1224 28.3663C35.141 28.3663 33.964 29.6984 33.4442 30.9883C33.2554 31.4493 33.2067 32.0894 33.2067 32.7359V44.7813H26.0354C26.0354 44.7813 26.1316 25.2373 26.0354 23.2142H33.2073V26.2705C33.1928 26.2945 33.1725 26.3181 33.1597 26.3411H33.2073V26.2705C34.1602 24.8041 35.8598 22.7078 39.6701 22.7078C44.3879 22.7078 47.9249 25.7902 47.9249 32.4135ZM18.5335 12.8181C16.0805 12.8181 14.4756 14.4283 14.4756 16.5439C14.4756 18.6146 16.0339 20.2713 18.4394 20.2713H18.4859C20.987 20.2713 22.5422 18.6146 22.5422 16.5439C22.4946 14.4283 20.987 12.8181 18.5335 12.8181ZM14.9018 44.7818H22.0705V23.2142H14.9018V44.7818Z" fill="white"/>
</g>
<defs>
<clipPath id="clip0">
<rect width="60" height="60" fill="white"/>
</clipPath>
</defs>
</svg>
