<svg width="172" height="52" viewBox="0 0 172 52" fill="none" xmlns="http://www.w3.org/2000/svg">
<path d="M7.60385 51.3709C6.96779 51.4716 6.32289 51.5724 5.678 51.6809L3.67263 51.9986L1.42874 41.2176L3.44294 40.8921C17.0741 38.7142 27.8518 36.9859 34.0093 33.7849C38.4352 31.483 40.8381 28.4138 39.1331 20.2369L51.4215 18.2683C53.8509 29.9251 50.2377 38.0864 40.3787 43.2173C32.64 47.2321 21.5619 49.1309 7.60385 51.3709Z" fill="#7C9FA5"/>
<path d="M44.5485 4.79039C45.1846 4.68963 45.8295 4.58888 46.4744 4.48037L48.4798 4.1626L50.7236 14.9436L48.7094 15.2691C35.0783 17.447 24.3005 19.1754 18.1431 22.3764C13.7172 24.6783 11.3143 27.7475 13.0193 35.9243L0.730909 37.8929C-1.6985 26.2361 1.91469 18.0748 11.7737 12.944C19.5124 8.92143 30.5905 7.0303 44.5485 4.79039Z" fill="#7C9FA5"/>
<path d="M72.2915 0V18.407H69.2723V0H72.2915Z" fill="black"/>
<path d="M81.8968 15.7055L86.0285 3.81382H89.2332L83.6713 18.407H80.0694L74.5341 3.81382H77.7652L81.8968 15.7055Z" fill="black"/>
<path d="M104.89 10.7529C104.89 11.3002 104.855 11.7946 104.784 12.236H93.6342C93.7225 13.4013 94.1551 14.3371 94.9319 15.0434C95.7088 15.7497 96.6623 16.1028 97.7923 16.1028C99.4167 16.1028 100.564 15.423 101.235 14.0635H104.493C104.052 15.4054 103.248 16.5089 102.083 17.3741C100.935 18.2216 99.505 18.6453 97.7923 18.6453C96.3974 18.6453 95.1438 18.3364 94.0315 17.7184C92.9368 17.0827 92.0716 16.1999 91.4359 15.0699C90.818 13.9222 90.509 12.598 90.509 11.0972C90.509 9.59635 90.8091 8.28093 91.4095 7.15091C92.0274 6.00324 92.8838 5.12041 93.9785 4.50243C95.0909 3.88445 96.3621 3.57546 97.7923 3.57546C99.1695 3.57546 100.397 3.87562 101.474 4.47594C102.551 5.07627 103.389 5.92378 103.99 7.01849C104.59 8.09554 104.89 9.34033 104.89 10.7529ZM101.739 9.7994C101.721 8.68704 101.324 7.79538 100.547 7.12443C99.7698 6.45348 98.8076 6.118 97.6599 6.118C96.6182 6.118 95.7265 6.45348 94.9849 7.12443C94.2433 7.77772 93.8019 8.66938 93.6607 9.7994H101.739Z" fill="black"/>
<path d="M111.384 6.27691V14.3548C111.384 14.9022 111.508 15.2994 111.755 15.5466C112.02 15.7762 112.461 15.8909 113.079 15.8909H114.933V18.407H112.549C111.19 18.407 110.148 18.0892 109.424 17.4535C108.7 16.8179 108.338 15.785 108.338 14.3548V6.27691H106.617V3.81382H108.338V0.185395H111.384V3.81382H114.933V6.27691H111.384Z" fill="black"/>
<path d="M121.238 6.27691V14.3548C121.238 14.9022 121.362 15.2994 121.609 15.5466C121.874 15.7762 122.315 15.8909 122.933 15.8909H124.787V18.407H122.404C121.044 18.407 120.002 18.0892 119.278 17.4535C118.554 16.8179 118.192 15.785 118.192 14.3548V6.27691H116.471V3.81382H118.192V0.185395H121.238V3.81382H124.787V6.27691H121.238Z" fill="black"/>
<path d="M140.945 10.7529C140.945 11.3002 140.91 11.7946 140.839 12.236H129.689C129.777 13.4013 130.21 14.3371 130.987 15.0434C131.763 15.7497 132.717 16.1028 133.847 16.1028C135.471 16.1028 136.619 15.423 137.29 14.0635H140.548C140.106 15.4054 139.303 16.5089 138.137 17.3741C136.99 18.2216 135.56 18.6453 133.847 18.6453C132.452 18.6453 131.198 18.3364 130.086 17.7184C128.991 17.0827 128.126 16.1999 127.491 15.0699C126.873 13.9222 126.564 12.598 126.564 11.0972C126.564 9.59635 126.864 8.28093 127.464 7.15091C128.082 6.00324 128.938 5.12041 130.033 4.50243C131.145 3.88445 132.417 3.57546 133.847 3.57546C135.224 3.57546 136.451 3.87562 137.528 4.47594C138.605 5.07627 139.444 5.92378 140.044 7.01849C140.645 8.09554 140.945 9.34033 140.945 10.7529ZM137.793 9.7994C137.775 8.68704 137.378 7.79538 136.601 7.12443C135.824 6.45348 134.862 6.118 133.714 6.118C132.673 6.118 131.781 6.45348 131.04 7.12443C130.298 7.77772 129.857 8.66938 129.715 9.7994H137.793Z" fill="black"/>
<path d="M80.1311 43.3728H71.7089L70.0933 47.7693H68.1334L74.8871 29.4947H76.9794L83.7065 47.7693H81.7466L80.1311 43.3728ZM79.5749 41.8367L75.92 31.8254L72.2651 41.8367H79.5749Z" fill="black"/>
<path d="M88.5359 28.1705V47.7693H86.6819V28.1705H88.5359Z" fill="black"/>
<path d="M97.8722 45.9683L102.745 33.3086H104.705L98.9051 47.7693H96.8128L91.0126 33.3086H92.999L97.8722 45.9683Z" fill="black"/>
<path d="M106.371 40.5124C106.371 39.0293 106.662 37.7315 107.245 36.6192C107.845 35.4891 108.666 34.624 109.708 34.0236C110.767 33.4057 111.959 33.0967 113.283 33.0967C114.66 33.0967 115.843 33.4145 116.832 34.0501C117.838 34.6858 118.562 35.498 119.004 36.4867V33.3086H120.858V47.7693H119.004V44.5646C118.545 45.5534 117.812 46.3744 116.806 47.0277C115.817 47.6633 114.634 47.9812 113.257 47.9812C111.95 47.9812 110.767 47.6722 109.708 47.0542C108.666 46.4362 107.845 45.5622 107.245 44.4322C106.662 43.3022 106.371 41.9956 106.371 40.5124ZM119.004 40.5389C119.004 39.3736 118.765 38.3495 118.289 37.4667C117.812 36.5838 117.159 35.9041 116.329 35.4273C115.517 34.9506 114.616 34.7122 113.627 34.7122C112.603 34.7122 111.685 34.9418 110.873 35.4009C110.061 35.8599 109.416 36.5309 108.94 37.4137C108.48 38.2789 108.251 39.3118 108.251 40.5124C108.251 41.6954 108.48 42.7372 108.94 43.6376C109.416 44.5205 110.061 45.2003 110.873 45.677C111.685 46.1361 112.603 46.3656 113.627 46.3656C114.616 46.3656 115.517 46.1272 116.329 45.6505C117.159 45.1738 117.812 44.494 118.289 43.6112C118.765 42.7283 119.004 41.7043 119.004 40.5389Z" fill="black"/>
<path d="M126.944 35.8776C127.35 34.9771 127.968 34.2797 128.798 33.7853C129.646 33.2909 130.678 33.0437 131.897 33.0437V34.9771H131.394C130.052 34.9771 128.975 35.3391 128.162 36.063C127.35 36.7869 126.944 37.9964 126.944 39.6914V47.7693H125.09V33.3086H126.944V35.8776Z" fill="black"/>
<path d="M135.613 30.5806C135.242 30.5806 134.924 30.4482 134.659 30.1833C134.394 29.9185 134.262 29.5918 134.262 29.2034C134.262 28.815 134.394 28.4971 134.659 28.2499C134.924 27.9851 135.242 27.8527 135.613 27.8527C135.983 27.8527 136.301 27.9851 136.566 28.2499C136.831 28.4971 136.963 28.815 136.963 29.2034C136.963 29.5918 136.831 29.9185 136.566 30.1833C136.301 30.4482 135.983 30.5806 135.613 30.5806ZM136.54 33.3086V47.7693H134.686V33.3086H136.54Z" fill="black"/>
<path d="M147.518 33.0437C149.248 33.0437 150.661 33.5822 151.756 34.6593C152.85 35.7187 153.398 37.2636 153.398 39.2941V47.7693H151.57V39.506C151.57 37.9346 151.173 36.7339 150.378 35.9041C149.602 35.0742 148.533 34.6593 147.174 34.6593C145.779 34.6593 144.667 35.1007 143.837 35.9835C143.007 36.8663 142.592 38.1641 142.592 39.8768V47.7693H140.738V33.3086H142.592V35.7716C143.051 34.8888 143.713 34.2179 144.578 33.7588C145.443 33.2821 146.423 33.0437 147.518 33.0437ZM143.333 31.7195C143.439 30.9249 143.695 30.3158 144.102 29.892C144.508 29.4682 145.028 29.2564 145.664 29.2564C145.982 29.2564 146.256 29.3182 146.485 29.4418C146.715 29.5477 146.988 29.7066 147.306 29.9185C147.571 30.1127 147.801 30.2628 147.995 30.3687C148.189 30.457 148.401 30.5012 148.63 30.5012C148.931 30.5012 149.187 30.404 149.398 30.2098C149.61 29.9979 149.743 29.6978 149.796 29.3093H150.908C150.838 30.0862 150.581 30.6954 150.14 31.1368C149.716 31.5605 149.187 31.7724 148.551 31.7724C148.216 31.7724 147.924 31.7195 147.677 31.6135C147.447 31.4899 147.174 31.3134 146.856 31.0838C146.609 30.8896 146.388 30.7483 146.194 30.6601C146.017 30.5718 145.814 30.5276 145.585 30.5276C144.949 30.5276 144.578 30.9249 144.472 31.7195H143.333Z" fill="black"/>
<path d="M163.828 47.9812C162.468 47.9812 161.241 47.681 160.146 47.0807C159.069 46.4627 158.213 45.5975 157.577 44.4852C156.959 43.3551 156.65 42.0397 156.65 40.5389C156.65 39.0381 156.968 37.7315 157.604 36.6192C158.239 35.4891 159.105 34.624 160.199 34.0236C161.294 33.4057 162.521 33.0967 163.881 33.0967C165.24 33.0967 166.467 33.4057 167.562 34.0236C168.675 34.624 169.54 35.4891 170.158 36.6192C170.793 37.7315 171.111 39.0381 171.111 40.5389C171.111 42.0221 170.793 43.3287 170.158 44.4587C169.522 45.5887 168.648 46.4627 167.536 47.0807C166.423 47.681 165.187 47.9812 163.828 47.9812ZM163.828 46.3656C164.781 46.3656 165.664 46.1537 166.476 45.7299C167.288 45.2885 167.942 44.6352 168.436 43.7701C168.948 42.8872 169.204 41.8102 169.204 40.5389C169.204 39.2676 168.957 38.1994 168.463 37.3342C167.968 36.4514 167.315 35.7981 166.503 35.3744C165.691 34.933 164.808 34.7122 163.854 34.7122C162.901 34.7122 162.018 34.933 161.206 35.3744C160.394 35.7981 159.74 36.4514 159.246 37.3342C158.769 38.1994 158.531 39.2676 158.531 40.5389C158.531 41.8102 158.769 42.8872 159.246 43.7701C159.74 44.6352 160.385 45.2885 161.179 45.7299C161.991 46.1537 162.874 46.3656 163.828 46.3656Z" fill="black"/>
</svg>
