<svg width="103" height="48" viewBox="0 0 103 48" fill="none" xmlns="http://www.w3.org/2000/svg">
<path d="M4.15811 0V18.407H1.13883V0H4.15811Z" fill="black"/>
<path d="M13.7634 15.7055L17.8951 3.81382H21.0997L15.5379 18.407H11.936L6.40063 3.81382H9.63178L13.7634 15.7055Z" fill="black"/>
<path d="M36.7568 10.7529C36.7568 11.3002 36.7215 11.7946 36.6509 12.236H25.5008C25.589 13.4013 26.0216 14.3371 26.7985 15.0434C27.5754 15.7497 28.5289 16.1028 29.6589 16.1028C31.2833 16.1028 32.431 15.423 33.1019 14.0635H36.3596C35.9181 15.4054 35.1148 16.5089 33.9494 17.3741C32.8018 18.2216 31.3716 18.6453 29.6589 18.6453C28.264 18.6453 27.0104 18.3364 25.898 17.7184C24.8033 17.0827 23.9382 16.1999 23.3025 15.0699C22.6845 13.9222 22.3756 12.598 22.3756 11.0972C22.3756 9.59635 22.6757 8.28093 23.276 7.15091C23.894 6.00324 24.7504 5.12041 25.8451 4.50243C26.9574 3.88445 28.2287 3.57546 29.6589 3.57546C31.0361 3.57546 32.2632 3.87562 33.3403 4.47594C34.4173 5.07627 35.256 5.92378 35.8563 7.01849C36.4567 8.09554 36.7568 9.34033 36.7568 10.7529ZM33.6051 9.7994C33.5875 8.68704 33.1902 7.79538 32.4133 7.12443C31.6364 6.45348 30.6741 6.118 29.5265 6.118C28.4847 6.118 27.5931 6.45348 26.8515 7.12443C26.1099 7.77772 25.6685 8.66938 25.5273 9.7994H33.6051Z" fill="black"/>
<path d="M43.2506 6.27691V14.3548C43.2506 14.9022 43.3742 15.2994 43.6214 15.5466C43.8862 15.7762 44.3276 15.8909 44.9456 15.8909H46.7996V18.407H44.4159C43.0564 18.407 42.0146 18.0892 41.2907 17.4535C40.5668 16.8179 40.2048 15.785 40.2048 14.3548V6.27691H38.4833V3.81382H40.2048V0.185395H43.2506V3.81382H46.7996V6.27691H43.2506Z" fill="black"/>
<path d="M53.1048 6.27691V14.3548C53.1048 14.9022 53.2284 15.2994 53.4756 15.5466C53.7405 15.7762 54.1819 15.8909 54.7999 15.8909H56.6538V18.407H54.2702C52.9106 18.407 51.8689 18.0892 51.1449 17.4535C50.421 16.8179 50.0591 15.785 50.0591 14.3548V6.27691H48.3375V3.81382H50.0591V0.185395H53.1048V3.81382H56.6538V6.27691H53.1048Z" fill="black"/>
<path d="M72.8114 10.7529C72.8114 11.3002 72.7761 11.7946 72.7055 12.236H61.5554C61.6436 13.4013 62.0762 14.3371 62.8531 15.0434C63.63 15.7497 64.5835 16.1028 65.7135 16.1028C67.3379 16.1028 68.4856 15.423 69.1565 14.0635H72.4141C71.9727 15.4054 71.1694 16.5089 70.004 17.3741C68.8564 18.2216 67.4262 18.6453 65.7135 18.6453C64.3186 18.6453 63.065 18.3364 61.9526 17.7184C60.8579 17.0827 59.9927 16.1999 59.3571 15.0699C58.7391 13.9222 58.4301 12.598 58.4301 11.0972C58.4301 9.59635 58.7303 8.28093 59.3306 7.15091C59.9486 6.00324 60.805 5.12041 61.8997 4.50243C63.012 3.88445 64.2833 3.57546 65.7135 3.57546C67.0907 3.57546 68.3178 3.87562 69.3949 4.47594C70.4719 5.07627 71.3106 5.92378 71.9109 7.01849C72.5113 8.09554 72.8114 9.34033 72.8114 10.7529ZM69.6597 9.7994C69.6421 8.68704 69.2448 7.79538 68.4679 7.12443C67.691 6.45348 66.7287 6.118 65.5811 6.118C64.5393 6.118 63.6477 6.45348 62.9061 7.12443C62.1645 7.77772 61.7231 8.66938 61.5818 9.7994H69.6597Z" fill="black"/>
<path d="M11.9976 43.3728H3.57546L1.95988 47.7693H0L6.75364 29.4947H8.84594L15.5731 47.7693H13.6132L11.9976 43.3728ZM11.4415 41.8367L7.78655 31.8254L4.13164 41.8367H11.4415Z" fill="black"/>
<path d="M20.4024 28.1705V47.7693H18.5485V28.1705H20.4024Z" fill="black"/>
<path d="M29.7388 45.9683L34.612 33.3086H36.5719L30.7717 47.7693H28.6794L22.8792 33.3086H24.8656L29.7388 45.9683Z" fill="black"/>
<path d="M38.2371 40.5124C38.2371 39.0293 38.5284 37.7315 39.1111 36.6192C39.7114 35.4891 40.5325 34.624 41.5742 34.0236C42.6336 33.4057 43.8254 33.0967 45.1497 33.0967C46.5269 33.0967 47.7099 33.4145 48.6986 34.0501C49.705 34.6858 50.429 35.498 50.8704 36.4867V33.3086H52.7243V47.7693H50.8704V44.5646C50.4113 45.5534 49.6786 46.3744 48.6721 47.0277C47.6834 47.6633 46.5004 47.9812 45.1232 47.9812C43.8166 47.9812 42.6336 47.6722 41.5742 47.0542C40.5325 46.4362 39.7114 45.5622 39.1111 44.4322C38.5284 43.3022 38.2371 41.9956 38.2371 40.5124ZM50.8704 40.5389C50.8704 39.3736 50.632 38.3495 50.1553 37.4667C49.6786 36.5838 49.0253 35.9041 48.1954 35.4273C47.3832 34.9506 46.4827 34.7122 45.494 34.7122C44.4699 34.7122 43.5517 34.9418 42.7395 35.4009C41.9273 35.8599 41.2829 36.5309 40.8061 37.4137C40.3471 38.2789 40.1175 39.3118 40.1175 40.5124C40.1175 41.6954 40.3471 42.7372 40.8061 43.6376C41.2829 44.5205 41.9273 45.2003 42.7395 45.677C43.5517 46.1361 44.4699 46.3656 45.494 46.3656C46.4827 46.3656 47.3832 46.1272 48.1954 45.6505C49.0253 45.1738 49.6786 44.494 50.1553 43.6112C50.632 42.7283 50.8704 41.7043 50.8704 40.5389Z" fill="black"/>
<path d="M58.8107 35.8776C59.2168 34.9771 59.8347 34.2797 60.6646 33.7853C61.5121 33.2909 62.545 33.0437 63.7633 33.0437V34.9771H63.2601C61.9182 34.9771 60.8412 35.3391 60.029 36.063C59.2168 36.7869 58.8107 37.9964 58.8107 39.6914V47.7693H56.9567V33.3086H58.8107V35.8776Z" fill="black"/>
<path d="M67.4793 30.5806C67.1085 30.5806 66.7907 30.4482 66.5258 30.1833C66.261 29.9185 66.1286 29.5918 66.1286 29.2034C66.1286 28.815 66.261 28.4971 66.5258 28.2499C66.7907 27.9851 67.1085 27.8527 67.4793 27.8527C67.8501 27.8527 68.1679 27.9851 68.4327 28.2499C68.6976 28.4971 68.83 28.815 68.83 29.2034C68.83 29.5918 68.6976 29.9185 68.4327 30.1833C68.1679 30.4482 67.8501 30.5806 67.4793 30.5806ZM68.4063 33.3086V47.7693H66.5523V33.3086H68.4063Z" fill="black"/>
<path d="M79.3847 33.0437C81.115 33.0437 82.5275 33.5822 83.6222 34.6593C84.7169 35.7187 85.2643 37.2636 85.2643 39.2941V47.7693H83.4368V39.506C83.4368 37.9346 83.0396 36.7339 82.245 35.9041C81.4681 35.0742 80.3999 34.6593 79.0403 34.6593C77.6455 34.6593 76.5331 35.1007 75.7033 35.9835C74.8734 36.8663 74.4585 38.1641 74.4585 39.8768V47.7693H72.6045V33.3086H74.4585V35.7716C74.9175 34.8888 75.5797 34.2179 76.4448 33.7588C77.31 33.2821 78.2899 33.0437 79.3847 33.0437ZM75.2 31.7195C75.306 30.9249 75.562 30.3158 75.9681 29.892C76.3742 29.4682 76.8951 29.2564 77.5307 29.2564C77.8485 29.2564 78.1222 29.3182 78.3517 29.4418C78.5813 29.5477 78.8549 29.7066 79.1728 29.9185C79.4376 30.1127 79.6672 30.2628 79.8614 30.3687C80.0556 30.457 80.2675 30.5012 80.497 30.5012C80.7972 30.5012 81.0532 30.404 81.2651 30.2098C81.477 29.9979 81.6094 29.6978 81.6623 29.3093H82.7747C82.7041 30.0862 82.4481 30.6954 82.0067 31.1368C81.5829 31.5605 81.0532 31.7724 80.4176 31.7724C80.0821 31.7724 79.7907 31.7195 79.5436 31.6135C79.314 31.4899 79.0403 31.3134 78.7225 31.0838C78.4753 30.8896 78.2546 30.7483 78.0604 30.6601C77.8838 30.5718 77.6808 30.5276 77.4513 30.5276C76.8156 30.5276 76.4448 30.9249 76.3389 31.7195H75.2Z" fill="black"/>
<path d="M95.6944 47.9812C94.3348 47.9812 93.1077 47.681 92.013 47.0807C90.9359 46.4627 90.0796 45.5975 89.4439 44.4852C88.826 43.3551 88.517 42.0397 88.517 40.5389C88.517 39.0381 88.8348 37.7315 89.4704 36.6192C90.106 35.4891 90.9712 34.624 92.0659 34.0236C93.1606 33.4057 94.3878 33.0967 95.7473 33.0967C97.1069 33.0967 98.334 33.4057 99.4287 34.0236C100.541 34.624 101.406 35.4891 102.024 36.6192C102.66 37.7315 102.978 39.0381 102.978 40.5389C102.978 42.0221 102.66 43.3287 102.024 44.4587C101.389 45.5887 100.515 46.4627 99.4022 47.0807C98.2899 47.681 97.0539 47.9812 95.6944 47.9812ZM95.6944 46.3656C96.6478 46.3656 97.5306 46.1537 98.3428 45.7299C99.155 45.2885 99.8083 44.6352 100.303 43.7701C100.815 42.8872 101.071 41.8102 101.071 40.5389C101.071 39.2676 100.824 38.1994 100.329 37.3342C99.8348 36.4514 99.1815 35.7981 98.3693 35.3744C97.5571 34.933 96.6743 34.7122 95.7208 34.7122C94.7674 34.7122 93.8846 34.933 93.0724 35.3744C92.2602 35.7981 91.6069 36.4514 91.1125 37.3342C90.6357 38.1994 90.3974 39.2676 90.3974 40.5389C90.3974 41.8102 90.6357 42.8872 91.1125 43.7701C91.6069 44.6352 92.2513 45.2885 93.0459 45.7299C93.8581 46.1537 94.7409 46.3656 95.6944 46.3656Z" fill="black"/>
</svg>
