<svg width="162" height="70" viewBox="0 0 162 70" fill="none" xmlns="http://www.w3.org/2000/svg">
<path d="M136.738 45.3037C78.1711 40.637 29.8711 54.8704 18.9044 60.237C12.8377 63.037 12.3711 66.537 13.3044 68.4037C14.0044 69.8037 17.0377 70.737 20.0711 69.1037C43.4044 56.5037 90.3044 46.4704 136.738 49.2704C137.904 49.2704 138.838 48.337 138.838 47.1704C138.838 46.237 137.904 45.3037 136.738 45.3037ZM151.204 27.5704C148.638 30.3704 145.138 32.4704 143.971 31.537C142.804 30.6037 143.971 27.1037 143.971 27.1037C149.804 23.3704 161.004 13.8037 161.004 6.33702C161.004 -0.429644 154.938 -2.52964 148.638 3.77036C143.504 9.37036 139.771 16.3704 137.671 23.837C134.404 27.1037 129.038 31.3037 124.371 31.3037C121.804 31.3037 121.338 29.437 121.571 27.1037C125.538 27.1037 136.738 23.837 136.738 14.5037C136.738 12.8704 136.038 11.4704 134.871 10.3037C133.704 9.13702 132.304 8.67036 130.671 8.90369C125.538 8.90369 119.238 14.037 115.971 21.5037C115.271 21.2704 114.338 21.037 113.638 20.5704C114.571 18.7037 115.038 16.837 115.738 14.9704C116.438 11.0037 114.804 8.67036 111.771 9.13702C109.671 9.13702 107.338 11.0037 106.638 14.9704C106.404 17.0704 106.871 19.1704 107.571 20.8037C106.171 25.237 100.571 30.6037 98.7044 30.3704C96.8377 30.137 98.9377 22.437 100.804 16.6037C101.971 15.437 102.671 14.2704 103.371 12.637C103.838 11.4704 103.604 10.0704 102.438 9.60369C99.6377 8.43702 96.3711 9.83702 95.2044 12.637C94.5044 14.037 93.8044 15.437 93.1044 17.0704C91.4711 18.937 89.1377 21.5037 88.4377 21.2704C87.5044 20.5704 91.0044 15.9037 90.5377 13.1037C90.3044 11.0037 88.2044 9.37036 86.1044 9.60369C82.8377 10.0704 78.8711 16.137 78.8711 16.137C79.3377 14.9704 79.5711 13.8037 79.8044 12.637C79.5711 10.3037 75.3711 9.37036 73.2711 13.5704C71.8711 17.537 70.7044 21.737 70.2377 25.937C69.3044 27.8037 65.8044 33.4037 63.0044 33.637C60.6711 33.8704 63.4711 23.6037 63.9377 23.137C65.1044 21.2704 66.7377 17.3037 66.5044 15.437C66.5044 14.5037 66.2711 13.8037 65.5711 13.337C64.8711 12.8704 63.9377 12.637 63.2377 12.8704C61.8377 13.337 60.6711 14.2704 59.9711 15.437C59.0377 14.2704 57.4044 13.5704 55.7711 13.8037C46.4377 14.737 40.6044 31.0704 41.3044 38.7704C41.7711 42.9704 43.8711 45.537 47.3711 44.837C51.3377 44.3704 54.6044 38.3037 54.6044 38.3037C54.6044 38.3037 55.5377 43.2037 59.9711 42.737C63.2377 41.8037 66.0377 39.7037 68.1377 36.9037C68.1377 37.137 67.9044 37.3704 67.9044 37.837C67.2044 42.037 73.9711 41.5704 74.4377 38.3037C76.5377 22.6704 81.6711 16.3704 83.0711 16.3704C84.2377 16.3704 79.8044 23.6037 82.3711 26.637C84.4711 28.9704 87.9711 27.1037 91.0044 24.537C90.5377 26.4037 90.3044 28.5037 90.0711 30.3704C89.8377 34.8037 91.4711 38.3037 95.6711 38.0704C101.271 37.837 107.104 30.837 111.071 24.3037C112.004 25.0037 113.171 25.4704 114.338 25.7037C113.871 27.337 113.871 28.9704 113.871 30.3704C114.104 35.5037 117.604 37.3704 121.804 37.137C126.471 36.9037 132.071 33.4037 135.804 29.9037C135.804 30.137 135.804 30.3704 135.571 30.3704C135.338 32.937 135.804 37.3704 139.304 37.6037C143.271 37.837 150.271 33.8704 153.771 29.437C156.338 28.037 153.304 25.237 151.204 27.5704ZM154.938 6.57036C155.404 6.57036 155.638 7.03702 155.638 7.50369C155.638 11.937 144.904 21.037 144.904 21.037C144.904 21.037 151.904 6.57036 154.938 6.57036ZM128.804 15.6704C129.271 15.6704 129.504 15.6704 129.738 16.137C129.971 16.6037 129.971 16.837 129.971 17.0704C129.971 19.637 126.704 21.5037 122.971 21.5037C125.071 18.4704 127.171 15.6704 128.804 15.6704ZM56.4711 22.437C56.2377 25.0037 51.5711 36.9037 49.2377 36.9037C46.2044 37.137 50.8711 20.337 55.7711 20.337C56.7044 20.337 56.7044 21.037 56.4711 22.437ZM17.0377 25.7037C20.0711 25.7037 14.4711 41.337 15.1711 48.1037C15.8711 54.8704 23.3377 53.0037 22.8711 49.037C21.9377 42.2704 26.6044 21.037 31.0377 21.037C34.3044 21.037 27.3044 35.5037 28.7044 44.6037C29.6377 50.437 37.5711 48.8037 36.6377 44.837C34.0711 32.937 42.4711 21.5037 41.3044 13.1037C40.8377 9.60369 38.7377 7.73702 36.6377 7.73702C29.1711 7.73702 23.1044 23.137 23.1044 23.137C23.1044 23.137 24.0377 14.5037 17.7377 14.037C8.87106 13.5704 -0.228939 35.9704 0.00439387 56.2704C0.237727 62.8037 8.17106 61.637 7.70439 56.5037C7.23773 47.4037 12.3711 25.7037 17.0377 25.7037Z" fill="#1FB6FF"/>
</svg>
