<svg width="239" height="236" viewBox="0 0 239 236" fill="none" xmlns="http://www.w3.org/2000/svg">
<path d="M220.425 92.38C224.753 88.1616 226.281 81.9705 224.413 76.2228C222.546 70.4751 217.671 66.365 211.69 65.4963L159.395 57.8973C158.368 57.7484 157.481 57.1037 157.021 56.1729L133.635 8.78605C130.96 3.36654 125.544 0 119.501 0C113.457 0 108.041 3.36654 105.367 8.78605L81.9802 56.1734C81.5204 57.1037 80.6335 57.7484 79.6065 57.8978L27.3122 65.4963C21.3316 66.365 16.4568 70.4751 14.5887 76.2228C12.7206 81.9705 14.2489 88.1616 18.577 92.38L56.4179 129.266C57.1606 129.99 57.4999 131.034 57.3244 132.056L48.3913 184.14C47.37 190.096 49.7721 196.003 54.6613 199.555C59.5506 203.108 65.9121 203.567 71.2606 200.756L118.034 176.165C118.953 175.682 120.049 175.682 120.968 176.165L167.742 200.756C170.069 201.979 172.586 202.583 175.092 202.583C178.345 202.583 181.578 201.563 184.34 199.555C189.23 196.002 191.632 190.095 190.61 184.139L181.677 132.056C181.502 131.033 181.841 129.99 182.584 129.265L220.425 92.38ZM169.251 134.188L178.184 186.272C178.482 188.016 177.407 189.009 176.93 189.355C176.453 189.701 175.175 190.418 173.61 189.595L126.836 165.004C124.54 163.798 122.021 163.194 119.502 163.194C116.982 163.194 114.463 163.798 112.167 165.004L65.3939 189.594C63.8283 190.417 62.5507 189.7 62.0741 189.354C61.5975 189.008 60.521 188.015 60.8203 186.272L69.7533 134.188C70.6305 129.074 68.9365 123.859 65.2203 120.238L27.3794 83.3517C26.113 82.1166 26.3996 80.6802 26.5821 80.1201C26.7637 79.5595 27.3766 78.2286 29.1266 77.9747L81.4205 70.3757C86.5548 69.6298 90.9917 66.407 93.2883 61.7535L116.675 14.3661C117.458 12.7804 118.913 12.6091 119.502 12.6091C120.091 12.6091 121.545 12.78 122.329 14.3661V14.3666L145.716 61.754C148.012 66.4075 152.448 69.6302 157.583 70.3762L209.877 77.9752C211.627 78.2291 212.24 79.5599 212.422 80.1206C212.604 80.6812 212.891 82.118 211.624 83.3522L173.783 120.238C170.068 123.859 168.374 129.074 169.251 134.188Z" fill="#7C9FA5"/>
<path d="M193.153 8.78272C190.335 6.73628 186.393 7.36085 184.346 10.1775L177.654 19.3883C175.608 22.205 176.232 26.148 179.049 28.1945C180.169 29.0072 181.465 29.3988 182.75 29.3988C184.699 29.3988 186.622 28.4974 187.855 26.8001L194.547 17.5893C196.594 14.7722 195.97 10.8292 193.153 8.78272Z" fill="#7C9FA5"/>
<path d="M61.3184 19.3511L54.626 10.1402C52.58 7.3245 48.6374 6.69992 45.8198 8.74543C43.0032 10.7919 42.3786 14.7349 44.4251 17.5515L51.1175 26.7624C52.3513 28.4611 54.2735 29.362 56.2238 29.362C57.5089 29.362 58.8057 28.9703 59.9241 28.1572C62.7408 26.1112 63.3653 22.1682 61.3184 19.3511Z" fill="#7C9FA5"/>
<path d="M23.1306 141.448C22.0547 138.137 18.4981 136.325 15.1862 137.401L4.35792 140.919C1.046 141.995 -0.765641 145.553 0.310326 148.864C1.17577 151.529 3.64746 153.222 6.30493 153.222C6.95051 153.222 7.60729 153.122 8.25474 152.911L19.083 149.393C22.3945 148.317 24.2066 144.76 23.1306 141.448Z" fill="#7C9FA5"/>
<path d="M119.502 211.448C116.02 211.448 113.198 214.27 113.198 217.752V229.138C113.198 232.62 116.02 235.443 119.502 235.443C122.984 235.443 125.807 232.62 125.807 229.138V217.752C125.807 214.27 122.985 211.448 119.502 211.448Z" fill="#7C9FA5"/>
<path d="M234.642 140.928L223.814 137.41C220.503 136.335 216.945 138.146 215.869 141.458C214.793 144.77 216.605 148.326 219.917 149.402L230.745 152.921C231.393 153.131 232.049 153.231 232.694 153.231C235.352 153.231 237.824 151.537 238.689 148.872C239.765 145.561 237.953 142.004 234.642 140.928Z" fill="#7C9FA5"/>
</svg>
