<svg width="25" height="25" viewBox="0 0 25 25" fill="none" xmlns="http://www.w3.org/2000/svg">
<path d="M17.4128 24.0452C21.5421 24.0452 24.9067 20.6805 24.9067 16.5512V8.33845C24.9067 4.20912 21.5421 0.844482 17.4128 0.844482H8.0989C3.9696 0.844482 0.60498 4.20912 0.60498 8.33845V16.5512C0.60498 20.6805 3.9696 24.0452 8.0989 24.0452H17.4128ZM2.2567 16.5512V8.33845C2.2567 5.12675 4.87192 2.51151 8.0836 2.51151H17.3975C20.6091 2.51151 23.2244 5.12675 23.2244 8.33845V16.5512C23.2244 19.7629 20.6091 22.3782 17.3975 22.3782H8.0836C4.88722 22.3782 2.2567 19.7629 2.2567 16.5512Z" fill="#393A3E"/>
<path d="M19.3214 7.3594C20.0861 7.3594 20.7132 6.73235 20.7132 5.96766C20.7132 5.20297 20.0861 4.57593 19.3214 4.57593C18.5567 4.57593 17.9297 5.20297 17.9297 5.96766C17.945 6.73235 18.5567 7.3594 19.3214 7.3594Z" fill="#393A3E"/>
<path d="M19.4312 12.4371C19.4312 8.75125 16.4337 5.75366 12.7479 5.75366C9.06204 5.75366 6.06445 8.75125 6.06445 12.4371C6.06445 16.1229 9.06204 19.1204 12.7479 19.1204C16.4337 19.1204 19.4312 16.1229 19.4312 12.4371ZM7.74677 12.4371C7.74677 9.66888 9.99496 7.42069 12.7631 7.42069C15.5313 7.42069 17.7795 9.66888 17.7795 12.4371C17.7795 15.2052 15.5313 17.4534 12.7631 17.4534C9.99496 17.4534 7.74677 15.2052 7.74677 12.4371Z" fill="#393A3E"/>
</svg>
