<svg width="24" height="23" viewBox="0 0 24 23" fill="none" xmlns="http://www.w3.org/2000/svg">
<path d="M0.742676 7.66016H5.59081V22.2657H0.742676V7.66016Z" fill="#393A3E"/>
<path d="M3.20846 0.624756C1.54143 0.624756 0.455566 1.71062 0.455566 3.14823C0.455566 4.55526 1.51084 5.67171 3.13198 5.67171H3.16258C4.86019 5.67171 5.91547 4.55526 5.91547 3.14823C5.88488 1.71062 4.87548 0.624756 3.20846 0.624756Z" fill="#393A3E"/>
<path d="M17.522 7.32324C14.9526 7.32324 13.7903 8.74557 13.1479 9.73966V7.65971H8.2998V22.2653H13.1479V14.1137C13.1479 13.6702 13.1785 13.2419 13.3009 12.9361C13.6526 12.0643 14.4479 11.162 15.7938 11.162C17.5525 11.162 18.2561 12.5078 18.2561 14.4655V22.2806H23.1042V13.8996C23.1042 9.4032 20.7184 7.32324 17.522 7.32324Z" fill="#393A3E"/>
</svg>
