<svg width="26" height="21" viewBox="0 0 26 21" fill="none" xmlns="http://www.w3.org/2000/svg">
<path d="M8.31336 20.4399C17.7497 20.4399 22.9191 12.6248 22.9191 5.8343C22.9191 5.60489 22.919 5.39078 22.9038 5.17667C23.9132 4.45786 24.7696 3.54023 25.4578 2.51554C24.5402 2.92848 23.5461 3.20376 22.5061 3.32611C23.5614 2.68377 24.372 1.68968 24.7696 0.481466C23.7755 1.06263 22.6744 1.49086 21.512 1.72026C20.5791 0.726167 19.2485 0.0991211 17.765 0.0991211C14.9356 0.0991211 12.6263 2.39319 12.6263 5.23784C12.6263 5.63548 12.6721 6.03312 12.7639 6.41546C8.4969 6.20135 4.7193 4.15198 2.18052 1.04734C1.73699 1.81203 1.49228 2.68377 1.49228 3.63199C1.49228 5.40607 2.39463 6.98134 3.77108 7.89896C2.92992 7.86838 2.13463 7.63897 1.4464 7.25662C1.4464 7.27192 1.4464 7.30251 1.4464 7.3178C1.4464 9.81069 3.2205 11.8754 5.56047 12.3495C5.13224 12.4718 4.67342 12.533 4.19931 12.533C3.86285 12.533 3.54167 12.5024 3.23579 12.4412C3.89343 14.4753 5.78988 15.9588 8.03809 16.0047C6.27929 17.3811 4.06166 18.207 1.66052 18.207C1.24758 18.207 0.834653 18.1764 0.437012 18.1305C2.7158 19.5987 5.40752 20.4399 8.31336 20.4399Z" fill="#393A3E"/>
</svg>
